<svg width="512" height="512" viewBox="0 0 512 512" fill="none" xmlns="http://www.w3.org/2000/svg">
  <defs>
    <linearGradient id="bg" x1="0" y1="0" x2="0" y2="512" gradientUnits="userSpaceOnUse">
      <stop stop-color="#1a1a22"/>
      <stop offset="1" stop-color="#0d0d12"/>
    </linearGradient>
    <!-- Raised disc: lighter at the top, darker at the bottom → reads 3D. -->
    <linearGradient id="coin" x1="256" y1="72" x2="256" y2="436" gradientUnits="userSpaceOnUse">
      <stop stop-color="#2c2c39"/>
      <stop offset="1" stop-color="#14141b"/>
    </linearGradient>
    <linearGradient id="ink" x1="120" y1="170" x2="400" y2="360" gradientUnits="userSpaceOnUse">
      <stop stop-color="#6ee7ff"/>
      <stop offset="1" stop-color="#c084fc"/>
    </linearGradient>
    <!-- Soft drop shadow under the disc for elevation. -->
    <filter id="elev" x="-40%" y="-40%" width="180%" height="180%">
      <feDropShadow dx="0" dy="12" stdDeviation="18" flood-color="#000000" flood-opacity="0.5"/>
    </filter>
  </defs>

  <!-- Full-bleed background so the Android adaptive tile is filled. -->
  <rect width="512" height="512" fill="url(#bg)"/>

  <!-- Elevated, inset disc (margin from the edges + depth). -->
  <circle cx="256" cy="254" r="182" fill="url(#coin)" filter="url(#elev)"/>
  <circle cx="256" cy="254" r="182" fill="none" stroke="#ffffff" stroke-opacity="0.09" stroke-width="3"/>

  <!-- Bike glyph, scaled down and centred on the disc. -->
  <g transform="translate(97 74) scale(0.62)"
     fill="none" stroke="url(#ink)" stroke-width="32" stroke-linecap="round" stroke-linejoin="round">
    <circle cx="152" cy="328" r="76"/>
    <circle cx="360" cy="328" r="76"/>
    <path d="M152 328 L232 328 L296 216 L208 216"/>
    <path d="M232 328 L296 216"/>
    <path d="M360 328 L296 216"/>
    <path d="M232 328 L256 200"/>
    <path d="M228 196 L292 196"/>
    <path d="M296 216 L324 184 L356 184"/>
    <circle cx="152" cy="328" r="14" fill="#6ee7ff" stroke="none"/>
    <circle cx="360" cy="328" r="14" fill="#c084fc" stroke="none"/>
  </g>
</svg>
